<svg xmlns:dc="http://purl.org/dc/elements/1.1/" xmlns:cc="http://creativecommons.org/ns#" xmlns:rdf="http://www.w3.org/1999/02/22-rdf-syntax-ns#" xmlns:svg="http://www.w3.org/2000/svg" xmlns="http://www.w3.org/2000/svg" xmlns:sodipodi="http://sodipodi.sourceforge.net/DTD/sodipodi-0.dtd" xmlns:inkscape="http://www.inkscape.org/namespaces/inkscape" version="1.1" x="0px" y="0px" viewBox="0 0 100 125"><g transform="translate(0,-952.36218)"><path style="color:#000000;enable-background:accumulate;" d="m 50,959.3622 c -23.7482,0 -43,19.2519 -43,43 0,23.7482 19.2518,43 43,43 23.7482,0 43,-19.2518 43,-43 0,-23.7481 -19.2518,-43 -43,-43 z m -17,24 c 3.866,0 7,3.134 7,7 0,3.866 -3.134,7 -7,7 -3.8661,0 -7,-3.134 -7,-7 0,-3.866 3.1339,-7 7,-7 z m 34,0 c 3.866,0 7,3.134 7,7 0,3.866 -3.134,7 -7,7 -3.8661,0 -7,-3.134 -7,-7 0,-3.866 3.1339,-7 7,-7 z m -45,29 56,0 c -4.0836,11.6441 -15.077,20 -28,20 -12.923,0 -23.9163,-8.3559 -28,-20 z" fill="#000000" stroke="none" marker="none" visibility="visible" display="inline" overflow="visible"/></g><text x="0" y="115" fill="#000000" font-size="5px" font-weight="bold" font-family="'Helvetica Neue', Helvetica, Arial-Unicode, Arial, Sans-serif">Created by Barracuda</text><text x="0" y="120" fill="#000000" font-size="5px" font-weight="bold" font-family="'Helvetica Neue', Helvetica, Arial-Unicode, Arial, Sans-serif">from the Noun Project</text></svg>