<svg xmlns="http://www.w3.org/2000/svg" xmlns:xlink="http://www.w3.org/1999/xlink" version="1.1" x="0px" y="0px" viewBox="0 0 70 87.5" enable-background="new 0 0 70 70" xml:space="preserve"><g><g><g><path d="M64.9799805,14.079957c0,2.3800039-1.289978,4.5600576-3.3599854,5.6900015     c-0.9299927,0.5200195-2.0100098,0.8000488-3.1099854,0.8000488c-3.5700073,0-6.4700317-2.9100342-6.4700317-6.4900503     c0-0.8999634,0.3500366-2.0699463,1.0800171-3.5499878c1.6099854-3.25,4.4699707-6.9799805,4.5899658-7.1399536     C57.8999634,3.1499643,58.1900024,3.000001,58.5,3.000001c0.0100098,0,0.0100098,0,0.0100098,0     c0.3099976,0,0.5999756,0.1499634,0.789978,0.3900146C59.8800049,4.1400156,64.9799805,10.829957,64.9799805,14.079957z"/></g></g><g><path d="M63.4599609,20.9799805c-1.3999634,1-3.1099854,1.5900269-4.9499512,1.5900269    c-1.9437866,0-3.7313232-0.6669312-5.1624146-1.7750244l-0.4319458,1.8651733    c-4.7226563-1.0952148-7.5898438-5.9472656-7.7089844-6.1533203l1.7285156-1.0063467    c0.0239868,0.0426636,2.4710083,4.1477041,6.2196045,5.1498404c-1.8994141-1.5584717-3.1148071-3.9247437-3.1148071-6.5703726    c0-1.6499634,0.8500366-3.7199707,1.9700317-5.75C46.9299927,5.0899668,41.1199951,3.3900156,35,3.3900156    c-17.5400391,0-31.8099976,14.2699575-31.8099976,31.8099976C3.1900024,52.7399902,17.4599609,67,35,67    c17.539978,0,31.8099976-14.2600098,31.8099976-31.7999878C66.8099976,30.2299805,65.6599731,25.3699951,63.4599609,20.9799805z     M16.6304932,20.7119141c3.8710938-0.8979492,6.4072266-5.1679678,6.4316406-5.2109365l1.7285156,1.0058584    c-0.1191406,0.2060547-2.9853516,5.0581055-7.7089844,6.1533203L16.6304932,20.7119141z M24.0152588,26.8730469    c2.0107422,0,3.6464844,1.9799805,3.6464844,4.4140625c0,2.4282227-1.6357422,4.4038086-3.6464844,4.4038086    s-3.6464844-1.9755859-3.6464844-4.4038086C20.3687744,28.8530273,22.0045166,26.8730469,24.0152588,26.8730469z     M47.706665,53.3823242c-0.1015625,0.0029297-0.1679688-0.0083008-0.2509766-0.0288086    c-8.2382813-2.0195313-16.6171875-2.0200195-24.9140625,0.0004883c-0.078125,0.019043-0.1582031,0.0283203-0.2363281,0.0283203    c-0.3134766,0-0.6152344-0.1479492-0.8056641-0.4082031c-0.2392578-0.3256836-0.2587891-0.7626953-0.0507813-1.1083984    c3.1494141-5.2163086,8.2148438-8.3305664,13.5507813-8.3305664c5.2851563,0,10.3037109,3.0537109,13.4580078,8.1782227    C48.6168213,51.890625,48.713501,52.125,48.713501,52.3823242C48.713501,52.9365234,48.2437744,53.3920898,47.706665,53.3823242z     M45.9830322,35.690918c-2.0107422,0-3.6464844-1.9755859-3.6464844-4.4038086    c0-2.434082,1.6357422-4.4140625,3.6464844-4.4140625s3.6464844,1.9799805,3.6464844,4.4140625    C49.6295166,33.715332,47.9937744,35.690918,45.9830322,35.690918z M56.7369385,44.9516602    c-2.1279297,0-3.8583984-1.7353516-3.8583984-3.8686523c0-1.7788086,2.3476563-4.9536133,3.0673828-5.8842773    c0.1894531-0.2446289,0.4804688-0.3876953,0.7900391-0.3881836h0.0009766c0.3085938,0,0.6005859,0.1425781,0.7900391,0.3867188    c0.7226563,0.9306641,3.0791016,4.105957,3.0791016,5.8857422C60.6060791,43.2163086,58.8707275,44.9516602,56.7369385,44.9516602    z"/></g></g><text x="0" y="85" fill="#000000" font-size="5px" font-weight="bold" font-family="'Helvetica Neue', Helvetica, Arial-Unicode, Arial, Sans-serif">Created by Vectors Point</text><text x="0" y="90" fill="#000000" font-size="5px" font-weight="bold" font-family="'Helvetica Neue', Helvetica, Arial-Unicode, Arial, Sans-serif">from the Noun Project</text></svg>